<?xml version="1.0" encoding="UTF-8"?>
<svg version="1.1" xmlns="http://www.w3.org/2000/svg" width="2000" height="375">
<path d="M0 0 C24.09 0 48.18 0 73 0 C77.29 6.93 81.58 13.86 86 21 C88.3448429 24.71520563 90.69285825 28.42592886 93.0625 32.125 C94.23854783 33.96727777 95.41432416 35.80972888 96.58984375 37.65234375 C97.1607373 38.54679199 97.73163086 39.44124023 98.31982422 40.36279297 C100.9327126 44.46398744 103.53004145 48.57494458 106.125 52.6875 C106.61234619 53.45980957 107.09969238 54.23211914 107.60180664 55.02783203 C108.57871597 56.57626986 109.55552305 58.12477219 110.53222656 59.67333984 C113.01983357 63.61660245 115.51006414 67.55820768 118 71.5 C119.00001224 73.0833256 120.00001225 74.66665893 121 76.25 C121.495 77.03375 121.99 77.8175 122.5 78.625 C160.75 139.1875 160.75 139.1875 199 199.75 C199.49516113 200.5339917 199.99032227 201.3179834 200.50048828 202.12573242 C201.49890968 203.7065934 202.4972822 205.28748525 203.49560547 206.8684082 C206.01935492 210.86482516 208.54399298 214.86067588 211.0703125 218.85546875 C211.58207031 219.665 212.09382812 220.47453125 212.62109375 221.30859375 C213.56867896 222.80750126 214.51655482 224.3062251 215.46484375 225.8046875 C220.34005204 233.51791329 225.16363749 241.26181998 230 249 C230.495 125.745 230.495 125.745 231 0 C254.76 0 278.52 0 303 0 C303 120.78 303 241.56 303 366 C278.91 366 254.82 366 230 366 C221.80372995 353.12014706 213.61192573 340.23924898 205.46777344 327.32666016 C202.98016643 323.38339755 200.48993586 319.44179232 198 315.5 C196.99998776 313.9166744 195.99998775 312.33334107 195 310.75 C194.505 309.96625 194.01 309.1825 193.5 308.375 C153 244.25 112.5 180.125 72 116 C71.67 198.5 71.34 281 71 366 C47.57 366 24.14 366 0 366 C0 245.22 0 124.44 0 0 Z " fill="#8754E3" transform="translate(325,3)"/>
<path d="M0 0 C24.09 0 48.18 0 73 0 C85.60753676 19.484375 85.60753676 19.484375 89.9375 26.375 C90.94658764 27.97657947 91.95570305 29.57814146 92.96484375 31.1796875 C93.46612793 31.97600586 93.96741211 32.77232422 94.48388672 33.59277344 C96.98526718 37.56436947 99.49292509 41.53199716 102 45.5 C103.00003062 47.08331399 104.00003061 48.66664733 105 50.25 C105.495 51.03375 105.99 51.8175 106.5 52.625 C140 105.66666667 173.5 158.70833333 207 211.75 C207.4957251 212.53487793 207.9914502 213.31975586 208.50219727 214.12841797 C209.49494664 215.7003116 210.48762329 217.27225116 211.48022461 218.84423828 C214.09054246 222.97799275 216.70238839 227.1107716 219.31640625 231.2421875 C219.85974609 232.10134766 220.40308594 232.96050781 220.96289062 233.84570312 C222.00148561 235.48792597 223.04052248 237.12986947 224.08007812 238.77148438 C224.54994141 239.51462891 225.01980469 240.25777344 225.50390625 241.0234375 C225.91455322 241.67231934 226.3252002 242.32120117 226.74829102 242.98974609 C228.19284446 245.30970963 229.59391355 247.65652259 231 250 C231.33 167.5 231.66 85 232 0 C255.43 0 278.86 0 303 0 C303 120.78 303 241.56 303 366 C279.24 366 255.48 366 231 366 C223.13157257 354.75938939 223.13157257 354.75938939 220.52734375 350.546875 C219.94509033 349.60932373 219.36283691 348.67177246 218.76293945 347.70581055 C218.16054443 346.73039307 217.55814941 345.75497559 216.9375 344.75 C215.61794368 342.62583215 214.29761362 340.50214479 212.9765625 338.37890625 C212.31430664 337.31430176 211.65205078 336.24969727 210.96972656 335.15283203 C207.94591507 330.31278474 204.88211927 325.49858319 201.8125 320.6875 C196.00584254 311.58291417 190.22852155 302.46035131 184.46777344 293.32666016 C181.98016643 289.38339755 179.48993586 285.44179232 177 281.5 C175.99998776 279.9166744 174.99998775 278.33334107 174 276.75 C173.505 275.96625 173.01 275.1825 172.5 274.375 C96 153.25 96 153.25 94.49755859 150.87109375 C93.50574568 149.30075026 92.51388436 147.73043734 91.52197266 146.16015625 C88.89629551 142.00333844 86.27166296 137.84586549 83.6484375 133.6875 C83.10058594 132.81931641 82.55273438 131.95113281 81.98828125 131.05664062 C80.93588914 129.38886668 79.88379189 127.72090662 78.83203125 126.05273438 C78.35894531 125.30314453 77.88585938 124.55355469 77.3984375 123.78125 C76.98255371 123.12189453 76.56666992 122.46253906 76.13818359 121.78320312 C75.1122109 120.17580189 74.05777105 118.58665658 73 117 C72.67 199.17 72.34 281.34 72 366 C48.24 366 24.48 366 0 366 C0 245.22 0 124.44 0 0 Z " fill="#F65F31" transform="translate(1674,3)"/>
<path d="M0 0 C220.56296296 0 220.56296296 0 271 44 C271.49806152 44.43248047 271.99612305 44.86496094 272.50927734 45.31054688 C290.48291143 61.03545447 304.26350393 80.20561343 314 102 C314.41306396 102.92111572 314.41306396 102.92111572 314.83447266 103.86083984 C324.31028451 125.36562082 329.42222621 149.53736002 330 173 C330.02046387 173.77956055 330.04092773 174.55912109 330.06201172 175.36230469 C330.86955487 210.88085568 325.38444546 245.64548149 308 277 C307.64147949 277.64839844 307.28295898 278.29679687 306.91357422 278.96484375 C302.03489659 287.67445825 296.62329542 295.49283327 290 303 C289.24589844 303.86367188 288.49179687 304.72734375 287.71484375 305.6171875 C285.50749451 308.10850105 283.26357571 310.55977501 281 313 C280.42378906 313.64195312 279.84757812 314.28390625 279.25390625 314.9453125 C255.46497101 340.27072685 220.88770345 354.91005671 187.4375 361.75 C186.46997803 361.94875732 185.50245605 362.14751465 184.50561523 362.35229492 C124.10941836 374.02525717 61.51388985 366 0 366 C0 245.22 0 124.44 0 0 Z M71 60 C71 141.18 71 222.36 71 306 C158.67717876 310.16583294 158.67717876 310.16583294 228.12109375 270.88671875 C251.17119931 246.30892588 257.06848206 212.01928267 257.1328125 179.62890625 C257.01161055 176.31724125 256.58419419 173.25479618 256 170 C256 167.66666667 256 165.33333333 256 163 C252.2363558 130.90785103 238.34345858 102.77130689 213.5078125 81.90625 C172.73233142 51.70218994 118.01880031 60 71 60 Z " fill="#A858AE" transform="translate(688,3)"/>
<path d="M0 0 C85.14 0 170.28 0 258 0 C258 19.8 258 39.6 258 60 C196.29 60 134.58 60 71 60 C71 90.36 71 120.72 71 152 C117.2 152 163.4 152 211 152 C211 170.81 211 189.62 211 209 C210 210 210 210 207.70613766 210.12304783 C206.68202565 210.12212604 205.65791365 210.12120424 204.60276794 210.12025452 C202.84635483 210.12231651 202.84635483 210.12231651 201.05445862 210.12442017 C199.75830124 210.12082489 198.46214386 210.11722961 197.12670898 210.11352539 C195.75712079 210.11324352 194.38753244 210.11340125 193.01794434 210.1139679 C189.28877052 210.11425588 185.55962859 210.10835909 181.83046222 210.10139394 C177.93735587 210.09516047 174.04424887 210.09455661 170.15113831 210.09336853 C162.77401854 210.09025519 155.39691351 210.08204178 148.01980025 210.07201904 C138.05461001 210.05877275 128.08941576 210.05335801 118.12421894 210.04751682 C102.41613491 210.03810189 86.70808199 210.01818299 71 210 C71 241.68 71 273.36 71 306 C132.71 306 194.42 306 258 306 C258 325.8 258 345.6 258 366 C130.29 366.495 130.29 366.495 0 367 C0 245.89 0 124.78 0 0 Z " fill="#DF5D55" transform="translate(1367,3)"/>
<path d="M0 0 C85.14 0 170.28 0 258 0 C258 19.8 258 39.6 258 60 C196.29 60 134.58 60 71 60 C71 90.36 71 120.72 71 152 C117.2 152 163.4 152 211 152 C211 170.81 211 189.62 211 209 C210 210 210 210 207.70613766 210.12304783 C206.68202565 210.12212604 205.65791365 210.12120424 204.60276794 210.12025452 C202.84635483 210.12231651 202.84635483 210.12231651 201.05445862 210.12442017 C199.75830124 210.12082489 198.46214386 210.11722961 197.12670898 210.11352539 C195.75712079 210.11324352 194.38753244 210.11340125 193.01794434 210.1139679 C189.28877052 210.11425588 185.55962859 210.10835909 181.83046222 210.10139394 C177.93735587 210.09516047 174.04424887 210.09455661 170.15113831 210.09336853 C162.77401854 210.09025519 155.39691351 210.08204178 148.01980025 210.07201904 C138.05461001 210.05877275 128.08941576 210.05335801 118.12421894 210.04751682 C102.41613491 210.03810189 86.70808199 210.01818299 71 210 C71 241.68 71 273.36 71 306 C132.71 306 194.42 306 258 306 C258 325.8 258 345.6 258 366 C172.86 366 87.72 366 0 366 C0 245.22 0 124.44 0 0 Z " fill="#C45A82" transform="translate(1060,3)"/>
<path d="M0 0 C1.19824219 1.42675781 1.19824219 1.42675781 2.546875 3.453125 C3.05468506 4.207146 3.56249512 4.96116699 4.08569336 5.73803711 C4.63491455 6.56698486 5.18413574 7.39593262 5.75 8.25 C6.93256008 10.00720649 8.11618799 11.76369475 9.30078125 13.51953125 C9.91260254 14.42912598 10.52442383 15.3387207 11.15478516 16.27587891 C14.03580343 20.52917368 16.98383659 24.73446613 19.9375 28.9375 C20.5164502 29.76258057 21.09540039 30.58766113 21.69189453 31.43774414 C22.86931897 33.11561467 24.04705373 34.79326748 25.22509766 36.47070312 C27.0106508 39.01517775 28.7930033 41.56186227 30.57421875 44.109375 C31.45678345 45.37140747 31.45678345 45.37140747 32.35717773 46.65893555 C33.52506044 48.32939007 34.6925484 50.00012067 35.85961914 51.67114258 C38.73522108 55.78375584 41.62587631 59.88432154 44.546875 63.96484375 C45.10745605 64.75028564 45.66803711 65.53572754 46.24560547 66.3449707 C47.30833107 67.83205407 48.37488969 69.31640788 49.44580078 70.79760742 C53 75.77727129 53 75.77727129 53 78 C62.25333077 71.94395832 71.31334792 65.6237019 80.36328125 59.26953125 C81.15041504 58.7173291 81.93754883 58.16512695 82.74853516 57.59619141 C84.2048194 56.56374873 85.65307155 55.5198407 87.09130859 54.46240234 C91.80324481 51 91.80324481 51 94 51 C95.67137775 53.21612309 97.2204508 55.43785911 98.75 57.75 C99.73193293 59.20910116 100.71506602 60.66739516 101.69921875 62.125 C102.22692871 62.90875 102.75463867 63.6925 103.29833984 64.5 C106.9277221 69.83211969 110.67310745 75.08480383 114.40332031 80.34667969 C114.97276367 81.15524414 115.54220703 81.96380859 116.12890625 82.796875 C116.63494385 83.51198242 117.14098145 84.22708984 117.66235352 84.96386719 C118.94727937 86.91974994 120.00146769 88.88588041 121 91 C114.51281919 96.17072359 107.83157868 100.98413001 101 105.6875 C98.95149955 107.10500155 96.90332466 108.5229737 94.85546875 109.94140625 C93.35765869 110.9780542 93.35765869 110.9780542 91.82958984 112.03564453 C87.9756294 114.71113769 84.14131416 117.41369325 80.3125 120.125 C74.05071081 124.55460791 67.78018332 128.97149961 61.5 133.375 C60.68700439 133.94621582 59.87400879 134.51743164 59.03637695 135.10595703 C56.69636303 136.74533493 54.35049187 138.37568434 52 140 C50.75089844 140.8647998 50.75089844 140.8647998 49.4765625 141.74707031 C48.66960937 142.29717773 47.86265625 142.84728516 47.03125 143.4140625 C46.30486328 143.91115723 45.57847656 144.40825195 44.83007812 144.92041016 C43 146 43 146 41 146 C39.52636719 144.20605469 39.52636719 144.20605469 37.796875 141.671875 C37.15331055 140.73682129 36.50974609 139.80176758 35.84667969 138.83837891 C35.15477539 137.81921387 34.46287109 136.80004883 33.75 135.75 C32.29199253 133.6273803 30.83365325 131.50498847 29.375 129.3828125 C28.64023438 128.3093457 27.90546875 127.23587891 27.1484375 126.12988281 C24.04446028 121.60795236 20.90016141 117.11482396 17.75 112.625 C17.17604492 111.80547852 16.60208984 110.98595703 16.01074219 110.14160156 C11.8662487 104.22595701 7.7028266 98.3238291 3.53369141 92.42553711 C-3.27549343 82.78724726 -10.02884895 73.10977602 -16.79101562 63.43847656 C-24.83238945 51.93887258 -32.89733657 40.45651312 -41 29 C-36.70257443 24.31589401 -31.79388861 20.89228559 -26.5625 17.3125 C-24.77424325 16.07754132 -22.98648588 14.84185921 -21.19921875 13.60546875 C-20.32056152 12.99880371 -19.4419043 12.39213867 -18.53662109 11.76708984 C-16.22210882 10.15472798 -13.92815009 8.51899835 -11.64453125 6.86328125 C-11.0012085 6.39688232 -10.35788574 5.9304834 -9.69506836 5.44995117 C-8.50710704 4.58515358 -7.32159908 3.71697285 -6.13891602 2.8449707 C-2.2185476 0 -2.2185476 0 0 0 Z " fill="#7653FE" transform="translate(60,126)"/>
<path d="M0 0 C3.65031723 1.46471347 5.20897302 3.29622857 7.3984375 6.5234375 C8.03539551 7.4518042 8.67235352 8.3801709 9.32861328 9.33666992 C10.34157471 10.84064331 10.34157471 10.84064331 11.375 12.375 C12.81733953 14.48332527 14.26005448 16.59139375 15.703125 18.69921875 C16.42564453 19.76060059 17.14816406 20.82198242 17.89257812 21.91552734 C20.93305399 26.36563996 24.02641965 30.77774393 27.125 35.1875 C28.27363351 36.82668558 29.4220713 38.46600833 30.5703125 40.10546875 C31.13524414 40.91161621 31.70017578 41.71776367 32.28222656 42.54833984 C35.1896209 46.69786428 38.09468001 50.84902306 41 55 C42.16665575 56.66667431 43.33332241 58.33334098 44.5 60 C51.5 70 51.5 70 53.25146484 72.50219727 C54.41311751 74.16163156 55.57490045 75.82097466 56.73681641 77.48022461 C59.73129575 81.75679158 62.723198 86.03512736 65.7109375 90.31640625 C66.62540649 91.62557007 66.62540649 91.62557007 67.55834961 92.96118164 C68.75299119 94.67182619 69.94654514 96.38323091 71.13891602 98.09545898 C73.60894807 101.63263564 76.08817333 105.15302381 78.69140625 108.59375 C79.43261719 109.5734375 80.17382812 110.553125 80.9375 111.5625 C81.87916016 112.77099609 81.87916016 112.77099609 82.83984375 114.00390625 C83.22269531 114.66261719 83.60554687 115.32132812 84 116 C82.76569937 119.70290189 81.55008512 120.27482859 78.36328125 122.44140625 C77.39938477 123.10333984 76.43548828 123.76527344 75.44238281 124.44726562 C74.40952148 125.14529297 73.37666016 125.84332031 72.3125 126.5625 C70.20901322 128.00039229 68.10614745 129.4391935 66.00390625 130.87890625 C64.46307373 131.93102295 64.46307373 131.93102295 62.89111328 133.00439453 C58.03349076 136.35739288 53.28781035 139.85976988 48.546875 143.375 C46 145 46 145 43 145 C41.68823242 143.57324219 41.68823242 143.57324219 40.35546875 141.546875 C39.85088135 140.792854 39.34629395 140.03883301 38.82641602 139.26196289 C38.28557373 138.43301514 37.74473145 137.60406738 37.1875 136.75 C36.01416342 134.99272614 34.83964637 133.23624001 33.6640625 131.48046875 C33.05852539 130.57087402 32.45298828 129.6612793 31.82910156 128.72412109 C28.96687188 124.46133963 26.01710762 120.26154722 23.0625 116.0625 C21.88924054 114.39068281 20.71606394 112.71880746 19.54296875 111.046875 C18.95950684 110.21607422 18.37604492 109.38527344 17.77490234 108.52929688 C15.39363021 105.1359022 13.01833385 101.73834613 10.64331055 98.34057617 C8.90247049 95.85177336 7.15842787 93.36523902 5.4140625 90.87890625 C3.10341956 87.58356173 0.80867185 84.2778529 -1.4765625 80.96484375 C-2.56767305 79.39320467 -3.65881735 77.82158902 -4.75 76.25 C-5.25160645 75.51628174 -5.75321289 74.78256348 -6.27001953 74.02661133 C-7.46318639 72.31499249 -8.72497427 70.65154339 -10 69 C-12.73238445 69 -13.78728943 70.09508245 -16.0078125 71.67578125 C-16.82258057 72.25183105 -17.63734863 72.82788086 -18.47680664 73.42138672 C-19.35071045 74.0454541 -20.22461426 74.66952148 -21.125 75.3125 C-22.93855807 76.59279364 -24.75236367 77.8727367 -26.56640625 79.15234375 C-28.37778419 80.43464157 -30.18898769 81.71718584 -32 83 C-35.01409662 85.13481064 -38.03471232 87.25966227 -41.0625 89.375 C-41.7220166 89.84462158 -42.3815332 90.31424316 -43.06103516 90.7980957 C-47.65842343 94 -47.65842343 94 -51 94 C-52.32763672 92.55737305 -52.32763672 92.55737305 -53.6796875 90.51171875 C-54.44611572 89.37089844 -54.44611572 89.37089844 -55.22802734 88.20703125 C-55.77152832 87.37558594 -56.3150293 86.54414063 -56.875 85.6875 C-58.03055288 83.95135872 -59.18682503 82.215696 -60.34375 80.48046875 C-60.94058594 79.57989746 -61.53742188 78.67932617 -62.15234375 77.75146484 C-63.9923041 75.01146046 -65.8768028 72.30878377 -67.78125 69.61328125 C-68.68447998 68.32707886 -68.68447998 68.32707886 -69.60595703 67.01489258 C-70.7718387 65.35746129 -71.94454887 63.70480931 -73.12451172 62.05737305 C-73.64803223 61.30625244 -74.17155273 60.55513184 -74.7109375 59.78125 C-75.17806152 59.12189453 -75.64518555 58.46253906 -76.12646484 57.78320312 C-77 56 -77 56 -76 53 C-74.0925293 51.4128418 -74.0925293 51.4128418 -71.57421875 49.69921875 C-70.17683472 48.73894775 -70.17683472 48.73894775 -68.7512207 47.75927734 C-67.74019287 47.07559082 -66.72916504 46.3919043 -65.6875 45.6875 C-63.57007194 44.23602795 -61.45288866 42.78419877 -59.3359375 41.33203125 C-57.73443848 40.23882568 -57.73443848 40.23882568 -56.10058594 39.12353516 C-51.64779203 36.07389725 -47.22888636 32.97701731 -42.8125 29.875 C-41.18239884 28.73291994 -39.55219046 27.59099288 -37.921875 26.44921875 C-36.28122452 25.29951552 -34.64059996 24.14977531 -33 23 C-22.01947813 15.30497237 -11.03736968 7.61336813 0 0 Z " fill="#7652FE" transform="translate(167,96)"/>
</svg>
